<svg width="34" height="34" viewBox="0 0 34 34" fill="none" xmlns="http://www.w3.org/2000/svg">
<rect width="34" height="34" rx="10" fill="#C67C4E"/>
<g clip-path="url(#clip0_15_117)">
<circle cx="17" cy="17" r="7.5" stroke="white" stroke-width="1.5"/>
<path d="M17.768 18.9201C16.0356 19.613 15.1695 19.9595 14.6747 19.6233C14.5574 19.5436 14.4563 19.4424 14.3765 19.3251C14.0403 18.8303 14.3868 17.9642 15.0797 16.2318C15.2276 15.8623 15.3015 15.6776 15.4286 15.5326C15.4609 15.4957 15.4957 15.4609 15.5326 15.4286C15.6776 15.3015 15.8623 15.2276 16.2318 15.0797C17.9642 14.3868 18.8303 14.0403 19.3251 14.3765C19.4424 14.4563 19.5436 14.5574 19.6233 14.6747C19.9595 15.1695 19.613 16.0356 18.9201 17.768C18.7723 18.1375 18.6984 18.3222 18.5713 18.4672C18.5389 18.5041 18.5041 18.5389 18.4672 18.5713C18.3222 18.6984 18.1375 18.7723 17.768 18.9201Z" stroke="white" stroke-width="1.5"/>
</g>
<defs>
<clipPath id="clip0_15_117">
<rect width="18" height="18" fill="white" transform="translate(8 8)"/>
</clipPath>
</defs>
</svg>
